<svg id="A" xmlns="http://www.w3.org/2000/svg" viewBox="0 0 297.94 264.96" style=""><defs><style>.cls-1{fill:#fff;}.cls-1,.cls-2,.cls-3{stroke:#231f20;stroke-miterlimit:10;stroke-width:7px;}.cls-2{fill:none;}.cls-3{fill:#231f20;}</style></defs><title>Logo A</title><path class="cls-1 GcPbzgNj_0" d="M68.65,261.46L4.81,261.44L88.42,3.5L154.47,3.52L238.08,261.46L174.4,261.46L152.29,187.74L92.11,187.74L68.65,261.46Z"></path><path class="cls-2 GcPbzgNj_1" d="M16.76,224.59L80.38,224.59"></path><path class="cls-2 GcPbzgNj_2" d="M163.34,224.59L226.13,224.59"></path><path class="cls-2 GcPbzgNj_3" d="M92.11,187.74L28.7,187.74"></path><path class="cls-2 GcPbzgNj_4" d="M152.29,187.74L214.19,187.74"></path><path class="cls-2 GcPbzgNj_5" d="M202.24,150.9L148.61,150.9L95.79,150.9L40.65,150.9"></path><path class="cls-2 GcPbzgNj_6" d="M52.59,114.05L109.3,114.05L136.32,114.05L190.3,114.05"></path><path class="cls-2 GcPbzgNj_7" d="M177.71,75.2L65.18,75.2"></path><path class="cls-2 GcPbzgNj_8" d="M76.48,40.35L166.41,40.35"></path><path class="cls-2 GcPbzgNj_9" d="M52.59,151.14L52.59,187.74"></path><path class="cls-2 GcPbzgNj_10" d="M122.2,152.84L122.2,186.04"></path><path class="cls-2 GcPbzgNj_11" d="M190.3,151.14L190.3,187.74"></path><path class="cls-2 GcPbzgNj_12" d="M52.59,224.59L52.59,261.46"></path><path class="cls-2 GcPbzgNj_13" d="M190.3,224.6L190.3,261.45"></path><path class="cls-2 GcPbzgNj_14" d="M121.44,114.05L121.44,77.2"></path><path class="cls-2 GcPbzgNj_15" d="M92.11,40.35L92.11,75.2"></path><path class="cls-2 GcPbzgNj_16" d="M148.61,40.35L148.61,75.2"></path><path class="cls-2 GcPbzgNj_17" d="M121.44,3.51L121.44,40.35"></path><path class="cls-2 GcPbzgNj_18" d="M157.21,114.05L157.21,150.89"></path><path class="cls-2 GcPbzgNj_19" d="M86.78,150.49L86.78,113.64"></path><path class="cls-3 GcPbzgNj_20" d="M154.47,3.52L202.24,3.52L293,261.45L238.08,261.45L154.47,3.52Z"></path><path class="cls-3 GcPbzgNj_21" d="M68.65,261.46L117.76,261.46L139.87,188.53L92.11,190.37"></path><g id="Layer_5" data-name="Layer 5"><path class="cls-3 GcPbzgNj_22" d="M102.92,150.81L141.47,150.81L131.82,114.05L113.76,114.05L102.92,150.81Z"></path></g><style>.GcPbzgNj_0{stroke-dasharray:951 953;stroke-dashoffset:952;animation:GcPbzgNj_draw 2666ms ease 0ms forwards;}.GcPbzgNj_1{stroke-dasharray:64 66;stroke-dashoffset:65;animation:GcPbzgNj_draw 2666ms ease 60ms forwards;}.GcPbzgNj_2{stroke-dasharray:63 65;stroke-dashoffset:64;animation:GcPbzgNj_draw 2666ms ease 121ms forwards;}.GcPbzgNj_3{stroke-dasharray:64 66;stroke-dashoffset:65;animation:GcPbzgNj_draw 2666ms ease 181ms forwards;}.GcPbzgNj_4{stroke-dasharray:62 64;stroke-dashoffset:63;animation:GcPbzgNj_draw 2666ms ease 242ms forwards;}.GcPbzgNj_5{stroke-dasharray:162 164;stroke-dashoffset:163;animation:GcPbzgNj_draw 2666ms ease 303ms forwards;}.GcPbzgNj_6{stroke-dasharray:138 140;stroke-dashoffset:139;animation:GcPbzgNj_draw 2666ms ease 363ms forwards;}.GcPbzgNj_7{stroke-dasharray:113 115;stroke-dashoffset:114;animation:GcPbzgNj_draw 2666ms ease 424ms forwards;}.GcPbzgNj_8{stroke-dasharray:90 92;stroke-dashoffset:91;animation:GcPbzgNj_draw 2666ms ease 484ms forwards;}.GcPbzgNj_9{stroke-dasharray:37 39;stroke-dashoffset:38;animation:GcPbzgNj_draw 2666ms ease 545ms forwards;}.GcPbzgNj_10{stroke-dasharray:34 36;stroke-dashoffset:35;animation:GcPbzgNj_draw 2666ms ease 606ms forwards;}.GcPbzgNj_11{stroke-dasharray:37 39;stroke-dashoffset:38;animation:GcPbzgNj_draw 2666ms ease 666ms forwards;}.GcPbzgNj_12{stroke-dasharray:37 39;stroke-dashoffset:38;animation:GcPbzgNj_draw 2666ms ease 727ms forwards;}.GcPbzgNj_13{stroke-dasharray:37 39;stroke-dashoffset:38;animation:GcPbzgNj_draw 2666ms ease 787ms forwards;}.GcPbzgNj_14{stroke-dasharray:37 39;stroke-dashoffset:38;animation:GcPbzgNj_draw 2666ms ease 848ms forwards;}.GcPbzgNj_15{stroke-dasharray:35 37;stroke-dashoffset:36;animation:GcPbzgNj_draw 2666ms ease 909ms forwards;}.GcPbzgNj_16{stroke-dasharray:35 37;stroke-dashoffset:36;animation:GcPbzgNj_draw 2666ms ease 969ms forwards;}.GcPbzgNj_17{stroke-dasharray:37 39;stroke-dashoffset:38;animation:GcPbzgNj_draw 2666ms ease 1030ms forwards;}.GcPbzgNj_18{stroke-dasharray:37 39;stroke-dashoffset:38;animation:GcPbzgNj_draw 2666ms ease 1090ms forwards;}.GcPbzgNj_19{stroke-dasharray:37 39;stroke-dashoffset:38;animation:GcPbzgNj_draw 2666ms ease 1151ms forwards;}.GcPbzgNj_20{stroke-dasharray:648 650;stroke-dashoffset:649;animation:GcPbzgNj_draw 2666ms ease 1212ms forwards;}.GcPbzgNj_21{stroke-dasharray:174 176;stroke-dashoffset:175;animation:GcPbzgNj_draw 2666ms ease 1272ms forwards;}.GcPbzgNj_22{stroke-dasharray:133 135;stroke-dashoffset:134;animation:GcPbzgNj_draw 2666ms ease 1333ms forwards;}@keyframes GcPbzgNj_draw{100%{stroke-dashoffset:0;}}@keyframes GcPbzgNj_fade{0%{stroke-opacity:1;}95.1219512195122%{stroke-opacity:1;}100%{stroke-opacity:0;}}</style></svg>